<?xml version="1.0" standalone="no"?>
<!DOCTYPE svg PUBLIC "-//W3C//DTD SVG 20010904//EN"
 "http://www.w3.org/TR/2001/REC-SVG-20010904/DTD/svg10.dtd">
<svg version="1.0" xmlns="http://www.w3.org/2000/svg"
 width="356.000000pt" height="356.000000pt" viewBox="0 0 356.000000 356.000000"
 preserveAspectRatio="xMidYMid meet">
<metadata>
Created by potrace 1.14, written by Peter Selinger 2001-2017
</metadata>
<g transform="translate(0.000000,356.000000) scale(0.100000,-0.100000)"
fill="#000000" stroke="none">
<path d="M170 3009 c-54 -24 -114 -80 -143 -134 l-22 -40 -3 -879 c-3 -1010
-7 -952 81 -1040 94 -92 1 -86 1215 -86 586 0 1068 -2 1070 -5 3 -2 -17 -62
-43 -132 -26 -71 -50 -135 -53 -143 -6 -15 36 31 113 125 22 26 59 71 83 99
l43 51 112 6 c90 4 121 10 157 28 61 32 97 67 128 126 23 46 26 62 29 199 2
99 7 156 16 167 10 14 188 227 250 299 58 68 227 271 227 273 0 1 -92 1 -205
1 l-205 -1 23 41 c13 22 70 120 127 216 56 96 111 191 122 210 11 19 32 55 47
80 16 25 63 106 106 180 43 74 86 149 96 166 l19 31 -303 -2 c-166 0 -312 3
-324 7 -13 4 -23 15 -23 23 0 9 -24 40 -54 70 -91 92 16 85 -1401 84 -1212 -1
-1241 -1 -1285 -20z m2484 -169 c2 -3 -7 -39 -21 -80 -14 -41 -74 -219 -133
-395 -143 -422 -124 -379 -155 -359 -24 15 -85 17 -692 17 -709 -1 -699 0
-722 -50 -18 -40 -13 -73 18 -104 l29 -29 671 0 c369 0 671 -2 671 -3 0 -2 -9
-30 -20 -62 -11 -32 -20 -60 -20 -62 0 -1 95 -3 210 -3 116 0 210 -4 210 -8 0
-8 -151 -417 -169 -457 -5 -11 -26 -67 -48 -125 l-38 -105 -1103 0 -1102 0
-27 28 -28 27 0 859 c0 845 0 859 20 881 11 12 28 25 39 29 21 8 2402 9 2410
1z m93 -1762 c-7 -18 -29 -41 -48 -52 l-34 -20 20 25 c29 36 68 79 72 79 2 0
-3 -15 -10 -32z"/>
<path d="M578 2450 c-26 -27 -30 -36 -25 -68 20 -120 191 -102 178 18 -8 76
-97 105 -153 50z"/>
<path d="M949 2451 c-38 -39 -40 -88 -3 -125 15 -14 38 -26 53 -27 30 -1 1288
0 1313 0 26 1 67 43 72 75 6 33 -7 64 -38 88 -19 16 -71 18 -694 18 l-674 0
-29 -29z"/>
<path d="M578 1990 c-26 -27 -30 -36 -25 -68 18 -109 169 -107 178 3 2 34 0
41 -26 69 -35 38 -87 36 -127 -4z"/>
<path d="M630 1563 c-66 -19 -95 -76 -66 -132 43 -83 169 -51 169 43 0 51 -59
101 -103 89z"/>
<path d="M978 1557 c-59 -22 -76 -95 -34 -144 l24 -28 664 -2 c451 -2 673 1
696 8 69 23 79 114 16 156 -25 16 -72 17 -686 18 -363 0 -669 -3 -680 -8z"/>
</g>
</svg>
