<?xml version="1.0" standalone="no"?>
<!DOCTYPE svg PUBLIC "-//W3C//DTD SVG 20010904//EN"
 "http://www.w3.org/TR/2001/REC-SVG-20010904/DTD/svg10.dtd">
<svg version="1.0" xmlns="http://www.w3.org/2000/svg"
 width="700.000000pt" height="700.000000pt" viewBox="0 0 700.000000 700.000000"
 preserveAspectRatio="xMidYMid meet">
<metadata>
Created by potrace 1.11, written by Peter Selinger 2001-2013
</metadata>
<g transform="translate(0.000000,700.000000) scale(0.100000,-0.100000)"
fill="#000000" stroke="none">
<path d="M5529 6968 c-149 -39 -279 -132 -361 -259 -9 -14 -36 -62 -61 -105
-24 -43 -56 -100 -70 -126 -15 -27 -39 -69 -53 -95 -15 -27 -102 -183 -194
-348 -92 -165 -180 -322 -195 -350 -15 -27 -43 -78 -63 -112 l-36 -63 -71 0
c-288 -2 -594 -80 -871 -220 l-131 -67 -194 64 c-107 35 -203 65 -214 68 -11
2 -63 16 -115 30 -195 53 -471 107 -627 122 -154 14 -462 8 -593 -12 -129 -19
-263 -54 -389 -101 -190 -71 -437 -211 -483 -275 -31 -41 -38 -93 -37 -272 0
-93 -1 -170 -3 -172 -2 -2 -61 -5 -130 -6 -222 -4 -342 -50 -468 -178 -76 -77
-111 -134 -147 -241 -17 -53 -18 -127 -18 -1720 0 -916 3 -1683 7 -1705 18
-110 72 -210 163 -300 80 -81 160 -127 267 -155 70 -18 126 -19 1222 -19
l1149 -1 16 -23 c8 -12 40 -48 70 -80 146 -154 369 -242 588 -231 234 11 432
116 590 311 l18 23 1215 3 c668 1 1224 5 1235 9 235 73 383 222 440 442 22 88
23 3294 0 3401 -23 111 -77 208 -160 291 -134 134 -246 172 -515 174 -96 0
-176 2 -178 4 -2 2 -3 86 -4 187 -1 273 -12 291 -231 364 -78 26 -146 51 -150
55 -4 4 45 101 109 216 64 115 133 238 152 274 19 36 38 70 42 75 4 6 21 35
37 65 52 95 85 154 103 185 10 17 31 66 46 110 22 67 27 97 27 185 0 89 -4
117 -27 185 -72 209 -235 352 -456 401 -65 14 -179 10 -251 -8z"/>
</g>
</svg>
