<?xml version="1.0" standalone="no"?>
<!DOCTYPE svg PUBLIC "-//W3C//DTD SVG 20010904//EN"
 "http://www.w3.org/TR/2001/REC-SVG-20010904/DTD/svg10.dtd">
<svg version="1.0" xmlns="http://www.w3.org/2000/svg"
 width="327.000000pt" height="327.000000pt" viewBox="0 0 327.000000 327.000000"
 preserveAspectRatio="xMidYMid meet">
<metadata>
Created by potrace 1.14, written by Peter Selinger 2001-2017
</metadata>
<g transform="translate(0.000000,327.000000) scale(0.100000,-0.100000)"
fill="#000000" stroke="none">
<path d="M3098 2974 c-29 -26 -80 -72 -113 -102 -33 -31 -74 -69 -92 -86 l-32
-29 -40 27 c-81 56 -25 54 -1372 53 l-1244 -2 -41 -22 c-61 -33 -99 -68 -131
-121 l-28 -47 -3 -890 c-2 -990 -5 -942 65 -1024 19 -23 58 -54 87 -69 l51
-27 785 -2 c432 -1 790 -2 796 -2 7 -1 -14 -63 -47 -146 -33 -80 -59 -156 -59
-169 0 -28 29 -56 58 -56 17 0 103 65 132 99 3 3 43 40 90 81 46 41 91 82 100
90 9 8 38 35 64 59 l47 43 277 2 c258 2 280 3 322 23 76 35 139 109 156 184 3
13 7 127 8 253 l2 228 29 25 c39 33 196 175 259 234 44 41 48 48 41 77 -7 35
-23 47 -70 55 -16 3 -66 13 -110 22 -44 9 -93 19 -108 21 -16 2 -32 6 -35 8
-4 2 -7 105 -6 228 l0 223 93 230 c50 127 96 239 101 250 33 72 100 253 100
271 0 25 -34 54 -62 54 -9 0 -41 -21 -70 -46z m-395 -333 c12 -12 5 -20 -133
-144 -25 -23 -68 -61 -95 -86 -58 -53 -199 -179 -264 -237 -25 -21 -59 -52
-76 -69 -18 -16 -61 -55 -96 -86 -35 -31 -76 -67 -90 -80 -39 -36 -207 -188
-256 -233 -47 -43 -60 -73 -44 -104 13 -24 -4 -19 391 -102 25 -5 56 -12 69
-14 13 -3 25 -7 26 -8 2 -3 -255 -649 -262 -657 -1 -2 -368 -4 -813 -4 -792 0
-812 0 -837 20 -15 10 -30 30 -33 44 -4 13 -6 405 -6 871 l1 847 22 22 c12 12
38 25 59 28 20 3 574 6 1231 5 916 -1 1197 -4 1206 -13z m36 -1774 c-7 -16
-24 -33 -38 -39 -14 -6 -92 -11 -173 -12 l-148 -1 28 27 c15 15 97 90 182 166
l155 140 3 -126 c2 -81 -2 -137 -9 -155z"/>
</g>
</svg>
