<?xml version="1.0" encoding="iso-8859-1"?>
<!-- Generator: Adobe Illustrator 19.0.0, SVG Export Plug-In . SVG Version: 6.00 Build 0)  -->
<svg version="1.1" id="Layer_1" xmlns="http://www.w3.org/2000/svg" xmlns:xlink="http://www.w3.org/1999/xlink" x="0px" y="0px"
	 viewBox="0 0 455 455" style="enable-background:new 0 0 455 455;" xml:space="preserve">
<path d="M415,102.509c-22.091,0-40,17.909-40,40c0,5.542,1.128,10.821,3.166,15.62l-83.791,83.792
	c-4.799-2.038-10.078-3.167-15.621-3.167s-10.822,1.129-15.621,3.167l-50.053-50.053c2.038-4.799,3.166-10.078,3.166-15.621
	c0-22.091-17.909-40-40-40c-22.091,0-40,17.909-40,40c0,5.542,1.128,10.821,3.166,15.62l-83.792,83.791
	c-4.799-2.038-10.078-3.167-15.621-3.167c-22.091,0-40,17.909-40,40s17.909,40,40,40s40-17.909,40-40
	c0-5.542-1.128-10.821-3.166-15.62l83.792-83.791c4.799,2.038,10.078,3.166,15.621,3.166c5.542,0,10.821-1.128,15.62-3.166
	l50.054,50.054c-2.038,4.799-3.166,10.078-3.166,15.62c0,22.091,17.909,40,40,40c22.091,0,40-17.909,40-40
	c0-5.542-1.128-10.821-3.166-15.62l83.791-83.792c4.799,2.038,10.078,3.166,15.621,3.166c22.091,0,40-17.909,40-40
	S437.091,102.509,415,102.509z"/>
</svg>
